<?xml version="1.0" encoding="utf-8"?>
<!-- Generator: Adobe Illustrator 18.1.0, SVG Export Plug-In . SVG Version: 6.00 Build 0)  -->
<!DOCTYPE svg PUBLIC "-//W3C//DTD SVG 1.1//EN" "http://www.w3.org/Graphics/SVG/1.1/DTD/svg11.dtd">
<svg version="1.1" id="Layer_2" xmlns="http://www.w3.org/2000/svg" xmlns:xlink="http://www.w3.org/1999/xlink" x="0px" y="0px"
	 viewBox="0 0 595.3 595.3" enable-background="new 0 0 595.3 595.3" xml:space="preserve">
<path fill="#CC0022" d="M557,488.2L439.1,284L321.2,79.8c-10.5-18.2-36.7-18.2-47.2,0L156.1,284L38.2,488.2
	c-10.5,18.2,2.6,40.9,23.6,40.9h235.8h235.8C554.4,529.1,567.5,506.4,557,488.2z M308.5,449.6c-4.2,3.7-9,5.5-14.6,5.5
	c-5.7,0-10.6-1.8-14.9-5.5c-4.2-3.7-6.4-8.8-6.4-15.4c0-5.8,2-10.7,6.1-14.7c4.1-4.1,9-6.1,14.9-6.1c5.9,0,10.9,2,15,6.1
	c4.1,4.1,6.2,9,6.2,14.7C314.8,440.7,312.7,445.8,308.5,449.6z M313.8,294.5l-6,68.9c-0.7,8.2-2.1,14.5-4.2,18.9s-5.7,6.6-10.6,6.6
	c-5,0-8.5-2.1-10.5-6.4c-1.9-4.2-3.3-10.7-4.2-19.3l-4.5-67c-0.8-13-1.3-22.4-1.3-28.1c0-7.7,2-13.8,6.1-18.1
	c4.1-4.3,9.4-6.5,16-6.5c8,0,13.4,2.8,16.1,8.3c2.7,5.5,4.1,13.5,4.1,24C314.8,282,314.5,288.2,313.8,294.5z"/>
</svg>
